# xmcd
#
# Track frame offsets:
#	150
#	11341
#	23289
#	39370
#	61191
#	71549
#	85676
#	100232
#	114848
#
# Disc length: 1716 seconds
#
# Revision: 1
# Processed by: cddbd v1.5PL3 Copyright (c) Steve Scherf et al.
# Submitted via: audiograbber 1.81.03
#
DISCID=5606b209
DTITLE=Creedence Clearwater Revival - Green River
DYEAR=1969
DGENRE=Country
TTITLE0=Green River
TTITLE1=Commotion
TTITLE2=Tombstone Shadow
TTITLE3=Wrote A Song For Everyone
TTITLE4=Bad Moon Rising
TTITLE5=Lodi
TTITLE6=Cross-Tie Walker
TTITLE7=Sinister Purpose
TTITLE8=The Night Time Is The Right Time
EXTD=
EXTT0=
EXTT1=
EXTT2=
EXTT3=
EXTT4=
EXTT5=
EXTT6=
EXTT7=
EXTT8=
PLAYORDER=
